# File created by Blade
# Date/Time:  Tue Apr 07 20:22:24 2015
#---------------------------------------------------------
:version 1.10
:name HOM
:units
  mass 1.0
  length 1.000000
  angle deg
:documentation
     Acclaim Skeleton File
:root
   axis xyz
   order TX TY TZ RX RY RZ
   position 0.000000 0.000000 0.000000
   orientation 0 0 0
:bonedata
   begin
      id 1
      name Spine_dum
      direction 0.000000 1.000000 0.000000
      length 4.885285
      axis 0.0 0.0 0.0 xyz
   end
   begin
      id 2
      name LeftUpLeg_dum
      direction 1.000000 0.000000 0.000000
      length 2.672193
      axis 0.0 0.0 0.0 xyz
   end
   begin
      id 3
      name RightUpLeg_dum
      direction -1.000000 0.000000 0.000000
      length 2.672193
      axis 0.0 0.0 0.0 xyz
   end
   begin
      id 4
      name Spine
      direction 0.000000 1.000000 0.000000
      length 0.000000
      axis 0.0 0.0 0.0 xyz
      dof rx ry rz
   end
   begin
      id 5
      name Spine_dum1
      direction 0.000000 1.000000 0.000000
      length 16.494159
      axis 0.0 0.0 0.0 xyz
   end
   begin
      id 6
      name Spine_dum2
      direction 0.000000 1.000000 0.000000
      length 10.663448
      axis 0.0 0.0 0.0 xyz
   end
   begin
      id 7
      name Spine_dum3
      direction 0.000000 1.000000 0.000000
      length 10.663448
      axis 0.0 0.0 0.0 xyz
   end
   begin
      id 8
      name Head
      direction 0.000000 1.000000 0.000000
      length 4.527550
      axis 0.0 0.0 0.0 xyz
      dof rx ry rz
   end
   begin
      id 9
      name LeftShoulder
      direction 1.000000 0.000000 0.000000
      length 7.531907
      axis 0.0 0.0 -90.0 xyz
      dof rx ry rz
   end
   begin
      id 10
      name LeftArm
      direction 1.000000 0.000000 0.000000
      length 10.229199
      axis 0.0 0.0 -90.0 xyz
      dof rx ry rz
   end
   begin
      id 11
      name LeftForeArm
      direction 1.000000 0.000000 0.000000
      length 8.673495
      axis 0.0 0.0 -90.0 xyz
      dof ry rz rx
   end
   begin
      id 12
      name LeftHand
      direction 0.000000 0.000000 0.000000
      length 0.000000
      axis 0.0 0.0 -90.0 xyz
      dof rx ry rz
   end
   begin
      id 13
      name LeftHand_dum1
      direction 0.000000 0.000000 0.000000
      length 0.000000
      axis 0.0 0.0 -90.0 xyz
   end
   begin
      id 14
      name LeftHand_dum2
      direction 1.000000 0.000000 0.000000
      length 3.937000
      axis 0.0 0.0 -90.0 xyz
   end
   begin
      id 15
      name LeftHandThumb1
      direction 0.000000 0.000000 1.000000
      length 3.937000
      axis 0.0 0.0 -90.0 xyz
      dof rx rz ry
   end
   begin
      id 16
      name RightShoulder
      direction -1.000000 0.000000 0.000000
      length 7.531907
      axis 0.0 0.0 90.0 xyz
      dof rx ry rz
   end
   begin
      id 17
      name RightArm
      direction -1.000000 0.000000 0.000000
      length 10.229199
      axis 0.0 0.0 90.0 xyz
      dof rx ry rz
   end
   begin
      id 18
      name RightForeArm
      direction -1.000000 0.000000 0.000000
      length 8.673495
      axis 0.0 0.0 90.0 xyz
      dof ry rz rx
   end
   begin
      id 19
      name RightHand
      direction 0.000000 0.000000 0.000000
      length 0.000000
      axis 0.0 0.0 90.0 xyz
      dof rx ry rz
   end
   begin
      id 20
      name RightHand_dum1
      direction 0.000000 0.000000 0.000000
      length 0.000000
      axis 0.0 0.0 90.0 xyz
   end
   begin
      id 21
      name RightHand_dum2
      direction -1.000000 0.000000 0.000000
      length 3.937000
      axis 0.0 0.0 90.0 xyz
   end
   begin
      id 22
      name RightHandThumb1
      direction 0.000000 0.000000 1.000000
      length 3.937000
      axis 0.0 0.0 90.0 xyz
      dof rx rz ry
   end
   begin
      id 23
      name LeftUpLeg
      direction 0.000000 -1.000000 0.000000
      length 16.263388
      axis 0.0 0.0 0.0 xyz
      dof rx ry rz
   end
   begin
      id 24
      name LeftLeg
      direction 0.000000 -1.000000 0.000000
      length 14.328163
      axis 0.0 0.0 0.0 xyz
      dof rx ry rz
   end
   begin
      id 25
      name LeftFoot
      direction 0.000000 -0.258819 0.965926
      length 5.031290
      axis 15.0 0.0 0.0 xyz
      dof rx ry rz
   end
   begin
      id 26
      name LeftToeBase
      direction 0.000000 0.000000 1.000000
      length 2.952750
      axis 0.0 0.0 0.0 xyz
      dof rx ry rz
   end
   begin
      id 27
      name RightUpLeg
      direction 0.000000 -1.000000 0.000000
      length 16.263388
      axis 0.0 0.0 0.0 xyz
      dof rx ry rz
   end
   begin
      id 28
      name RightLeg
      direction 0.000000 -1.000000 0.000000
      length 14.328163
      axis 0.0 0.0 0.0 xyz
      dof rx ry rz
   end
   begin
      id 29
      name RightFoot
      direction 0.000000 -0.258819 0.965926
      length 5.031290
      axis 15.0 0.0 0.0 xyz
      dof rx ry rz
   end
   begin
      id 30
      name RightToeBase
      direction 0.000000 0.000000 1.000000
      length 2.952750
      axis 0.0 0.0 0.0 xyz
      dof rx ry rz
   end
:hierarchy
   begin
      root Spine_dum LeftUpLeg_dum RightUpLeg_dum
      Spine_dum Spine
      LeftUpLeg_dum LeftUpLeg
      RightUpLeg_dum RightUpLeg
      Spine Spine_dum1 Spine_dum2 Spine_dum3
      Spine_dum1 Head
      Spine_dum2 LeftShoulder
      Spine_dum3 RightShoulder
      LeftShoulder LeftArm
      LeftArm LeftForeArm
      LeftForeArm LeftHand
      LeftHand LeftHand_dum1 LeftHand_dum2
      LeftHand_dum1 LeftHandThumb1
      RightShoulder RightArm
      RightArm RightForeArm
      RightForeArm RightHand
      RightHand RightHand_dum1 RightHand_dum2
      RightHand_dum1 RightHandThumb1
      LeftUpLeg LeftLeg
      LeftLeg LeftFoot
      LeftFoot LeftToeBase
      RightUpLeg RightLeg
      RightLeg RightFoot
      RightFoot RightToeBase
   end

# File created by Blade
# Date/Time:  Tue Apr 07 20:22:14 2015
# Frame Rate: 120.000 fps
#------------------------------------------------------
:FULLY-SPECIFIED
:DEGREES
78
root 2.175790 32.793769 -7.807874 13.158885 1.713054 -0.679962
Spine -15.936350 -6.580391 -0.232440
Head 15.773003 -3.564515 0.723670
LeftShoulder -19.685488 38.721613 23.608257
LeftArm 52.955481 -56.739944 -53.666508
LeftForeArm 6.752647 -0.000000 -0.720077
LeftHand 6.070560 -0.000000 5.431628
LeftHandThumb1 -26.253704 0.000000 33.147579
RightShoulder -8.747279 5.974939 -32.232405
RightArm 10.340184 15.735693 37.399722
RightForeArm -9.144765 -0.000000 0.565724
RightHand 5.261060 -0.000000 -2.871447
RightHandThumb1 -24.326973 -0.000000 -32.862282
LeftUpLeg -6.672675 -2.188991 2.641123
LeftLeg -3.612298 -0.000000 0.000000
LeftFoot -5.309347 7.514883 -17.643222
LeftToeBase -7.938566 -0.000000 0.000000
RightUpLeg -6.895713 -2.474604 1.739404
RightLeg -3.704177 -0.000000 0.000000
RightFoot -6.439367 -7.636195 5.942742
RightToeBase 0.690426 -0.000000 -0.000000
79
root 2.176475 32.795263 -7.804945 13.173663 1.729387 -0.700603
Spine -15.967380 -6.582852 -0.207033
Head 15.867788 -3.677275 0.712658
LeftShoulder -19.683966 38.689989 23.542860
LeftArm 52.851901 -56.662333 -53.597726
LeftForeArm 6.713584 0.000000 -0.454386
LeftHand 6.139100 -0.000000 5.835995
LeftHandThumb1 -26.253704 0.000000 33.147579
RightShoulder -8.762069 6.004010 -32.194284
RightArm 10.255622 15.804606 37.416113
RightForeArm -9.152890 -0.000000 0.785237
RightHand 5.217723 0.000000 -3.067303
RightHandThumb1 -24.326973 -0.000000 -32.862282
LeftUpLeg -6.753621 -1.944898 2.624539
LeftLeg -3.470110 -0.000000 0.000000
LeftFoot -5.305757 7.282414 -17.583549
LeftToeBase -8.003888 -0.000000 0.000000
RightUpLeg -6.896218 -2.504234 1.759369
RightLeg -3.715836 -0.000000 0.000000
RightFoot -6.400578 -7.596474 5.876111
RightToeBase 0.705963 -0.000000 -0.000000
80
root 2.178395 32.796513 -7.801930 13.187926 1.731650 -0.704949
Spine -16.003004 -6.594822 -0.196275
Head 15.973939 -3.769154 0.711561
LeftShoulder -19.731673 38.702938 23.421919
LeftArm 52.879291 -56.607812 -53.621106
LeftForeArm 6.740286 -0.000000 -0.247203
LeftHand 6.260132 -0.000000 6.129902
LeftHandThumb1 -26.253704 0.000000 33.147579
RightShoulder -8.757814 6.015343 -32.147210
RightArm 10.207281 15.883187 37.480224
RightForeArm -9.165822 -0.000000 0.948236
RightHand 5.411489 -0.000000 -3.426820
RightHandThumb1 -24.326973 -0.000000 -32.862282
LeftUpLeg -6.770355 -1.877838 2.616950
LeftLeg -3.456631 -0.000000 0.000000
LeftFoot -5.280724 7.221240 -17.573966
LeftToeBase -8.023803 -0.000000 0.000000
RightUpLeg -6.899967 -2.530712 1.764002
RightLeg -3.729633 -0.000000 0.000000
RightFoot -6.372942 -7.572452 5.890525
RightToeBase 0.650556 -0.000000 -0.000000
81
root 2.182056 32.798177 -7.798725 13.205883 1.743223 -0.707284
Spine -16.049097 -6.595983 -0.181519
Head 16.103026 -3.871592 0.700866
LeftShoulder -19.736153 38.701478 23.319935
LeftArm 52.949418 -56.563195 -53.736812
LeftForeArm 6.678126 -0.000000 -0.021201
LeftHand 6.402542 -0.000000 6.295703
LeftHandThumb1 -26.253704 0.000000 33.147579
RightShoulder -8.771502 6.018706 -32.092608
RightArm 10.167356 15.966629 37.568754
RightForeArm -9.188551 -0.000000 1.129538
RightHand 5.358889 -0.000000 -3.549712
RightHandThumb1 -24.326973 -0.000000 -32.862282
LeftUpLeg -6.774853 -1.884618 2.616065
LeftLeg -3.476679 -0.000000 0.000000
LeftFoot -5.263752 7.218974 -17.593327
LeftToeBase -8.025648 -0.000000 0.000000
RightUpLeg -6.946376 -2.688378 1.793063
RightLeg -3.664172 -0.000000 0.000000
RightFoot -6.373386 -7.471055 5.806538
RightToeBase 0.687093 -0.000000 -0.000000
82
root 2.184705 32.798855 -7.795200 13.219084 1.746188 -0.703666
Spine -16.094874 -6.601968 -0.179598
Head 16.241615 -3.970512 0.690316
LeftShoulder -19.725354 38.687129 23.238601
LeftArm 53.023958 -56.488170 -53.874687
LeftForeArm 6.859837 0.000000 0.148203
LeftHand 6.587665 -0.000000 6.581494
LeftHandThumb1 -26.253704 0.000000 33.147579
RightShoulder -8.749112 6.022387 -32.011380
RightArm 10.115707 15.994169 37.650467
RightForeArm -9.114604 -0.000000 1.268157
RightHand 5.426395 -0.000000 -3.700062
RightHandThumb1 -24.326973 -0.000000 -32.862282
LeftUpLeg -6.782190 -1.846425 2.605851
LeftLeg -3.477147 -0.000000 0.000000
LeftFoot -5.251188 7.165471 -17.625713
LeftToeBase -7.969947 -0.000000 0.000000
RightUpLeg -6.952778 -2.733106 1.792034
RightLeg -3.667638 -0.000000 0.000000
RightFoot -6.354453 -7.440358 5.794086
RightToeBase 0.654732 -0.000000 -0.000000
83
root 2.186845 32.799267 -7.792621 13.238846 1.731330 -0.695835
Spine -16.152040 -6.587977 -0.190358
Head 16.404224 -4.083340 0.680030
LeftShoulder -19.778773 38.785015 23.080245
LeftArm 53.221224 -56.363512 -54.034410
LeftForeArm 6.782636 0.000000 0.265550
LeftHand 6.728498 -0.000000 6.877135
LeftHandThumb1 -26.253704 0.000000 33.147579
RightShoulder -8.711547 6.011352 -31.914929
RightArm 10.046174 15.884672 37.723302
RightForeArm -8.907205 0.000000 1.410590
RightHand 5.388947 0.000000 -3.706688
RightHandThumb1 -24.326973 -0.000000 -32.862282
LeftUpLeg -6.789205 -1.812192 2.589987
LeftLeg -3.489024 -0.000000 0.000000
LeftFoot -5.236145 7.139088 -17.632676
LeftToeBase -7.966920 -0.000000 0.000000
RightUpLeg -6.956936 -2.735373 1.780205
RightLeg -3.694039 -0.000000 0.000000
RightFoot -6.326733 -7.423352 5.784238
RightToeBase 0.619841 -0.000000 -0.000000
84
root 2.185009 32.799245 -7.791719 13.267676 1.736074 -0.727658
Spine -16.216811 -6.595064 -0.161046
Head 16.551499 -4.191760 0.676542
LeftShoulder -19.791014 38.831620 22.984080
LeftArm 53.432080 -56.246886 -54.306684
LeftForeArm 6.781225 -0.000000 0.369203
LeftHand 6.959169 -0.000000 7.060305
LeftHandThumb1 -26.253704 0.000000 33.147579
RightShoulder -8.662317 6.015718 -31.812888
RightArm 10.003828 15.980114 37.896912
RightForeArm -8.924421 -0.000000 1.474342
RightHand 5.575517 -0.000000 -3.972879
RightHandThumb1 -24.326973 -0.000000 -32.862282
LeftUpLeg -6.782518 -1.962545 2.642561
LeftLeg -3.560176 -0.000000 0.000000
LeftFoot -5.266651 7.324980 -17.653054
LeftToeBase -7.996243 -0.000000 0.000000
RightUpLeg -6.975056 -2.715861 1.816399
RightLeg -3.717669 -0.000000 0.000000
RightFoot -6.290891 -7.450493 5.790636
RightToeBase 0.572214 -0.000000 -0.000000
85
root 2.186018 32.798654 -7.789773 13.277719 1.732268 -0.741590
Spine -16.262689 -6.579384 -0.150992
Head 16.705015 -4.320566 0.657885
LeftShoulder -19.756286 38.827834 22.918359
LeftArm 53.474472 -55.991899 -54.414324
LeftForeArm 6.725518 -0.000000 0.459682
LeftHand 7.041823 -0.000000 7.380342
LeftHandThumb1 -26.253704 0.000000 33.147579
RightShoulder -8.631487 5.923932 -31.697864
RightArm 10.007780 15.917826 38.057095
RightForeArm -8.712212 -0.000000 1.556640
RightHand 5.577295 -0.000000 -4.073827
RightHandThumb1 -24.326973 -0.000000 -32.862282
LeftUpLeg -6.784162 -1.948786 2.653250
LeftLeg -3.566950 -0.000000 0.000000
LeftFoot -5.272905 7.311875 -17.638199
LeftToeBase -8.033594 -0.000000 0.000000
RightUpLeg -6.976023 -2.730831 1.838280
RightLeg -3.741393 -0.000000 0.000000
RightFoot -6.282963 -7.467896 5.851143
RightToeBase 0.624838 -0.000000 -0.000000
86
root 2.187853 32.797387 -7.789572 13.287528 1.735286 -0.727433
Spine -16.300152 -6.590743 -0.169067
Head 16.841237 -4.429894 0.646572
LeftShoulder -19.743395 38.854173 22.860025
LeftArm 53.704475 -55.795646 -54.784123
LeftForeArm 6.769646 -0.000000 0.522252
LeftHand 7.268360 -0.000000 7.572849
LeftHandThumb1 -26.253704 0.000000 33.147579
RightShoulder -8.586080 5.885866 -31.589325
RightArm 9.991082 15.942517 38.282621
RightForeArm -8.658150 -0.000000 1.615697
RightHand 5.631418 0.000000 -3.898604
RightHandThumb1 -24.326973 -0.000000 -32.862282
LeftUpLeg -6.800966 -1.950824 2.637741
LeftLeg -3.544111 -0.000000 0.000000
LeftFoot -5.302458 7.287914 -17.655037
LeftToeBase -8.056424 -0.000000 0.000000
RightUpLeg -6.928816 -2.606500 1.789455
RightLeg -3.844397 -0.000000 0.000000
RightFoot -6.242608 -7.535924 5.856765
RightToeBase 0.629918 -0.000000 -0.000000
87
root 2.188525 32.795887 -7.788418 13.286724 1.742865 -0.729590
Spine -16.326183 -6.588128 -0.173202
Head 16.971710 -4.545910 0.624378
LeftShoulder -19.725837 38.945309 22.793039
LeftArm 53.932842 -55.527925 -55.121951
LeftForeArm 6.664141 -0.000000 0.549343
LeftHand 7.372630 0.000000 7.720306
LeftHandThumb1 -26.253704 0.000000 33.147579
RightShoulder -8.583656 5.792581 -31.494616
RightArm 10.069098 15.992650 38.597120
RightForeArm -8.635757 -0.000000 1.605259
RightHand 5.794807 -0.000000 -4.082258
RightHandThumb1 -24.326973 -0.000000 -32.862282
LeftUpLeg -6.797341 -1.960307 2.644491
LeftLeg -3.545639 -0.000000 0.000000
LeftFoot -5.319051 7.266102 -17.693378
LeftToeBase -8.063911 -0.000000 0.000000
RightUpLeg -6.916403 -2.620687 1.794525
RightLeg -3.865790 -0.000000 0.000000
RightFoot -6.237429 -7.536195 5.830405
RightToeBase 0.625900 -0.000000 -0.000000
88
root 2.189623 32.794275 -7.787083 13.281008 1.740086 -0.751970
Spine -16.351891 -6.587135 -0.149335
Head 17.107233 -4.652502 0.590487
LeftShoulder -19.668060 38.987443 22.781546
LeftArm 54.068560 -55.220563 -55.457438
LeftForeArm 6.698339 -0.000000 0.540068
LeftHand 7.457835 -0.000000 7.769938
LeftHandThumb1 -26.253704 0.000000 33.147579
RightShoulder -8.555589 5.725052 -31.380487
RightArm 10.140406 16.071780 38.901741
RightForeArm -8.711200 -0.000000 1.579503
RightHand 5.863100 -0.000000 -4.139093
RightHandThumb1 -24.326973 -0.000000 -32.862282
LeftUpLeg -6.784056 -1.981205 2.667892
LeftLeg -3.551993 -0.000000 0.000000
LeftFoot -5.349324 7.283065 -17.695356
LeftToeBase -8.060384 -0.000000 0.000000
RightUpLeg -6.901791 -2.612261 1.815873
RightLeg -3.881699 -0.000000 0.000000
RightFoot -6.230945 -7.545466 5.839068
RightToeBase 0.641013 -0.000000 -0.000000
89
root 2.193610 32.793000 -7.785821 13.277035 1.727205 -0.742581
Spine -16.378555 -6.577198 -0.159503
Head 17.243871 -4.749160 0.566397
LeftShoulder -19.681110 39.117052 22.654425
LeftArm 54.364920 -54.922944 -55.788189
LeftForeArm 6.610554 0.000000 0.390830
LeftHand 7.592953 -0.000000 7.614640
LeftHandThumb1 -26.253704 0.000000 33.147579
RightShoulder -8.531758 5.666127 -31.266883
RightArm 10.185985 16.032908 39.208813
RightForeArm -8.753359 -0.000000 1.582096
RightHand 5.753946 0.000000 -3.705031
RightHandThumb1 -24.326973 -0.000000 -32.862282
LeftUpLeg -6.698794 -2.251826 2.693143
LeftLeg -3.712412 -0.000000 0.000000
LeftFoot -5.360283 7.550093 -17.780575
LeftToeBase -8.016532 -0.000000 0.000000
RightUpLeg -6.888245 -2.612630 1.795175
RightLeg -3.897440 -0.000000 0.000000
RightFoot -6.222290 -7.532548 5.838104
RightToeBase 0.579121 -0.000000 -0.000000
